<svg width="78" height="78" viewBox="0 0 78 78" fill="none" xmlns="http://www.w3.org/2000/svg">
<circle cx="39" cy="39" r="39" fill="#DFFCFF"/>
<circle cx="39" cy="39" r="38.5" stroke="#10387A" stroke-opacity="0.2" stroke-dasharray="6 6"/>
<path fill-rule="evenodd" clip-rule="evenodd" d="M49.4348 45.8885C49.5797 46.8238 49.6563 47.7602 49.6563 48.6809C49.6563 54.5649 44.8839 59.3373 38.9998 59.3373C33.1159 59.3373 28.3434 54.5649 28.3434 48.6809C28.3434 47.7602 28.42 46.8238 28.5649 45.8885C28.5713 45.8467 28.6067 45.8165 28.6489 45.8165H32.5807C32.6069 45.8165 32.6295 45.8272 32.6462 45.8474C32.6628 45.8677 32.6691 45.8919 32.664 45.9176C32.4846 46.8453 32.3876 47.7762 32.3876 48.6809C32.3876 52.3328 35.348 55.2932 38.9998 55.2932C42.6517 55.2932 45.612 52.3328 45.612 48.6809C45.612 47.7761 45.515 46.8452 45.3355 45.9176C45.3305 45.8919 45.3367 45.8677 45.3533 45.8474C45.37 45.8272 45.3926 45.8165 45.4188 45.8165H49.3507C49.393 45.8165 49.4284 45.8468 49.4348 45.8885ZM32.8497 36.3056C32.8497 33.9932 30.9579 32.1013 28.6454 32.1013C26.333 32.1013 24.441 33.9932 24.441 36.3056V38.3402C24.441 38.5139 24.4644 38.6823 24.5082 38.8425C24.5184 38.8799 24.5513 38.905 24.5901 38.905H32.7005C32.7393 38.905 32.7721 38.8799 32.7824 38.8425C32.8262 38.6824 32.8496 38.5139 32.8496 38.3402L32.8497 36.3056ZM28.6454 27.0376C27.4763 27.0376 26.5285 27.9853 26.5285 29.1544C26.5285 30.3235 27.4763 31.2712 28.6454 31.2712C29.8144 31.2712 30.7622 30.3235 30.7622 29.1544C30.7622 27.9853 29.8144 27.0376 28.6454 27.0376ZM25.9463 22.8863C25.9463 22.5424 26.2251 22.2637 26.5689 22.2637C26.9127 22.2637 27.1914 22.5424 27.1914 22.8863V25.6822C27.1914 26.026 26.9127 26.3048 26.5689 26.3048C26.2251 26.3048 25.9463 26.026 25.9463 25.6822V22.8863ZM22.6052 22.8863C22.6052 22.5424 22.884 22.2637 23.2278 22.2637C23.5716 22.2637 23.8504 22.5424 23.8504 22.8863V30.008C23.8504 30.3518 23.5716 30.6305 23.2278 30.6305C22.884 30.6305 22.6052 30.3518 22.6052 30.008V22.8863ZM45.1501 36.3056C45.1501 33.9932 47.042 32.1013 49.3544 32.1013C51.6668 32.1013 53.5588 33.9932 53.5588 36.3056V38.3402C53.5588 38.5139 53.5353 38.6824 53.4916 38.8425C53.4813 38.8799 53.4485 38.905 53.4096 38.905H45.2992C45.2604 38.905 45.2276 38.8799 45.2173 38.8425C45.1735 38.6824 45.15 38.5138 45.15 38.3402V36.3056H45.1501ZM49.3544 27.0376C50.5235 27.0376 51.4713 27.9853 51.4713 29.1544C51.4713 30.3235 50.5235 31.2712 49.3544 31.2712C48.1854 31.2712 47.2376 30.3235 47.2376 29.1544C47.2376 27.9853 48.1854 27.0376 49.3544 27.0376ZM54.1495 22.8863C54.1495 22.5424 54.4282 22.2637 54.772 22.2637C55.1158 22.2637 55.3946 22.5424 55.3946 22.8863V30.008C55.3946 30.3518 55.1158 30.6305 54.772 30.6305C54.4282 30.6305 54.1495 30.3518 54.1495 30.008V22.8863ZM50.8084 22.8863C50.8084 22.5424 51.0871 22.2637 51.4309 22.2637C51.7747 22.2637 52.0535 22.5424 52.0535 22.8863V25.6822C52.0535 26.026 51.7747 26.3048 51.4309 26.3048C51.0871 26.3048 50.8084 26.026 50.8084 25.6822V22.8863ZM44.3912 22.4398C44.3912 22.096 44.67 21.8172 45.0138 21.8172C45.3576 21.8172 45.6363 22.096 45.6363 22.4398V25.2357C45.6363 25.5796 45.3576 25.8583 45.0138 25.8583C44.67 25.8583 44.3912 25.5796 44.3912 25.2357V22.4398ZM32.3634 22.4398C32.3634 22.096 32.6421 21.8172 32.986 21.8172C33.3298 21.8172 33.6085 22.096 33.6085 22.4398V25.2357C33.6085 25.5796 33.3298 25.8583 32.986 25.8583C32.6421 25.8583 32.3634 25.5796 32.3634 25.2357V22.4398ZM34.7956 27.9312C34.7956 25.6187 36.6874 23.7269 38.9999 23.7269C41.3123 23.7269 43.2043 25.6187 43.2043 27.9312V29.9658C43.2043 30.1395 43.1809 30.308 43.1371 30.4681C43.1268 30.5055 43.094 30.5306 43.0552 30.5306H34.9448C34.906 30.5306 34.8731 30.5055 34.8628 30.4681C34.8191 30.308 34.7957 30.1395 34.7957 29.9658V27.9312H34.7956ZM38.9998 18.6631C40.1689 18.6631 41.1167 19.6108 41.1167 20.7799C41.1167 21.949 40.1689 22.8968 38.9998 22.8968C37.8308 22.8968 36.883 21.949 36.883 20.7799C36.883 19.6108 37.8309 18.6631 38.9998 18.6631ZM39.91 32.7868L35.7859 39.2716C35.7688 39.2985 35.7678 39.3302 35.7831 39.3581C35.7985 39.386 35.8257 39.4022 35.8575 39.4022H38.6139C38.6397 39.4022 38.662 39.4125 38.6787 39.4322C38.6955 39.452 38.7019 39.4755 38.6977 39.5011L37.9344 44.0839C37.9276 44.1242 37.9496 44.1625 37.9878 44.1772C38.0259 44.1918 38.068 44.1779 38.0899 44.1434L42.214 37.6585C42.2311 37.6316 42.2321 37.5999 42.2168 37.572C42.2014 37.5442 42.1742 37.528 42.1423 37.528H39.386C39.3602 37.528 39.3379 37.5177 39.3212 37.498C39.3044 37.4782 39.298 37.4546 39.3022 37.4291L40.0655 32.8463C40.0723 32.806 40.0503 32.7676 40.0121 32.753C39.9739 32.7384 39.9319 32.7523 39.91 32.7868ZM48.2129 41.3881C48.6034 42.3872 48.9237 43.4216 49.1624 44.4676C49.1684 44.4936 49.1627 44.5186 49.146 44.5395C49.1294 44.5603 49.1064 44.5715 49.0796 44.5715H45.0819C45.0434 44.5715 45.0107 44.5467 45.0001 44.5097C44.7501 43.626 44.4304 42.7592 44.054 41.9355C43.9757 41.7641 43.9444 41.5863 43.959 41.4119C43.9627 41.3678 43.9994 41.3341 44.0436 41.3341H48.1337C48.1694 41.3341 48.1999 41.3548 48.2129 41.3881ZM28.8374 44.4676C29.0761 43.4216 29.3964 42.3872 29.7869 41.3881C29.7999 41.3549 29.8304 41.3341 29.866 41.3341H33.9561C34.0003 41.3341 34.0371 41.3678 34.0407 41.4119C34.0554 41.5863 34.0239 41.7641 33.9457 41.9355C33.5694 42.7592 33.2497 43.626 32.9997 44.5097C32.9892 44.5467 32.9565 44.5715 32.918 44.5715H28.9203C28.8935 44.5715 28.8705 44.5604 28.8539 44.5395C28.8371 44.5186 28.8314 44.4936 28.8374 44.4676Z" fill="#00BCD0"/>
</svg>
