<svg width="38" height="39" viewBox="0 0 38 39" fill="none" xmlns="http://www.w3.org/2000/svg">
<path d="M29.7576 32.3285V32.5625C29.7576 34.5302 28.1628 36.125 26.1951 36.125H5.9375C3.96981 36.125 2.375 34.5302 2.375 32.5625V28.9192C2.375 21.7147 10.9654 17.8387 16.264 22.7205C17.2876 23.6634 18.3124 24.7677 19.3717 26.0324C20.0557 25.7997 20.8679 25.6085 21.7443 25.4565C25.9445 24.7297 29.7576 28.0654 29.7576 32.3285Z" fill="#10387A"/>
<path d="M32.0625 2.875H11.8037C9.83246 2.875 8.24121 4.46625 8.24121 6.4375V6.60613H26.195C29.3371 6.60613 31.895 9.16281 31.895 12.3061V30.2587H32.0625C34.0337 30.2587 35.625 28.6675 35.625 26.6962V6.4375C35.625 4.46625 34.0337 2.875 32.0625 2.875Z" fill="#10387A"/>
<path d="M26.1951 8.74268H5.9375C3.96981 8.74268 2.375 10.3375 2.375 12.3052V22.5996C4.30112 20.0584 7.34469 18.4066 10.7766 18.4066C13.3665 18.4066 15.7653 19.3554 17.7128 21.1485C18.4858 21.8622 19.2755 22.6721 20.1056 23.6078C20.5081 23.514 20.9344 23.4285 21.3821 23.3501C21.8833 23.2646 22.3951 23.2207 22.9009 23.2207C25.6476 23.2207 28.1057 24.4771 29.7576 26.4483V12.3052C29.7576 10.3375 28.1628 8.74268 26.1951 8.74268ZM21.3643 19.6427C19.6852 19.6427 18.3231 18.2819 18.3231 16.6016C18.3231 14.9224 19.684 13.5604 21.3643 13.5604C23.0434 13.5604 24.4055 14.9212 24.4055 16.6016C24.4055 18.2819 23.0446 19.6427 21.3643 19.6427Z" fill="#10387A"/>
</svg>
