<svg width="78" height="78" viewBox="0 0 78 78" fill="none" xmlns="http://www.w3.org/2000/svg">
<circle cx="39" cy="39" r="39" fill="#DFFCFF"/>
<circle cx="39" cy="39" r="38.5" stroke="#10387A" stroke-opacity="0.2" stroke-dasharray="6 6"/>
<g clip-path="url(#clip0_306_6306)">
<path d="M56.875 35.5625C55.2153 35.5625 53.8262 36.7455 53.5073 38.3125H49.9651C49.8087 35.7975 48.8076 33.5134 47.2372 31.7349L49.7442 29.228C50.3015 29.5979 50.9547 29.7973 51.6395 29.7973C52.5587 29.7973 53.4214 29.4401 54.0713 28.7909C55.41 27.4495 55.41 25.2695 54.0706 23.9307C53.4207 23.2808 52.5566 22.923 51.6382 22.923C50.7204 22.923 49.8577 23.2802 49.2084 23.9294C48.0362 25.1043 47.8905 26.9224 48.772 28.2558L46.2651 30.7628C44.4866 29.1924 42.2025 28.1913 39.6875 28.0349V24.4927C41.2545 24.1738 42.4375 22.7847 42.4375 21.125C42.4375 19.2297 40.8953 17.6875 39 17.6875C37.1047 17.6875 35.5625 19.2297 35.5625 21.125C35.5625 22.7847 36.7455 24.1738 38.3125 24.4927V28.0349C35.7975 28.1913 33.5134 29.1924 31.7349 30.7628L29.228 28.2565C30.1102 26.9224 29.9645 25.1036 28.7909 23.9301C28.1423 23.2808 27.2789 22.9236 26.3605 22.9236C25.442 22.9236 24.5793 23.2808 23.9301 23.9301C23.2808 24.5793 22.9236 25.442 22.9236 26.3611C22.9236 27.2796 23.2808 28.1423 23.9301 28.7916C24.5793 29.4401 25.4427 29.7973 26.3605 29.7973C27.0453 29.7973 27.6985 29.5979 28.2558 29.228L30.7628 31.7349C29.1917 33.5134 28.1913 35.7975 28.0349 38.3125L24.4933 38.3132C24.1738 36.7455 22.7853 35.5625 21.125 35.5625C19.2297 35.5625 17.6875 37.1047 17.6875 39C17.6875 40.8953 19.2297 42.4375 21.125 42.4375C22.7847 42.4375 24.1731 41.2545 24.4927 39.6882L28.0349 39.6875C28.1913 42.2025 29.1924 44.4866 30.7628 46.2651L28.2565 48.7727C27.6985 48.4028 27.046 48.2034 26.3611 48.2034C25.442 48.2034 24.5793 48.5605 23.9301 49.2098C23.2808 49.8583 22.9236 50.7211 22.9236 51.6395C22.9236 52.558 23.2808 53.4207 23.9301 54.0699C24.58 54.7192 25.4434 55.077 26.3618 55.077C27.2796 55.077 28.143 54.7198 28.7929 54.0706C29.9651 52.8964 30.1102 51.0782 29.2286 49.7449L31.7349 47.2372C33.5134 48.8083 35.7975 49.8087 38.3125 49.9651L38.3132 53.5067C36.7455 53.8262 35.5625 55.2147 35.5625 56.875C35.5625 58.7703 37.1047 60.3125 39 60.3125C40.8953 60.3125 42.4375 58.7703 42.4375 56.875C42.4375 55.2153 41.2545 53.8269 39.6882 53.5073L39.6875 49.9651C42.2025 49.8087 44.4866 48.8076 46.2651 47.2372L48.7727 49.7442C47.8905 51.0782 48.0362 52.897 49.2098 54.0706C49.859 54.7192 50.7217 55.0764 51.6402 55.0764C52.558 55.0764 53.4207 54.7192 54.0706 54.0706C55.41 52.7292 55.41 50.5485 54.0706 49.2078C53.4214 48.5599 52.5587 48.2027 51.6402 48.2027C50.9554 48.2027 50.3021 48.4028 49.7449 48.772L47.2372 46.2651C48.8083 44.4866 49.8087 42.2025 49.9651 39.6875H53.5073C53.8262 41.2545 55.2153 42.4375 56.875 42.4375C58.7703 42.4375 60.3125 40.8953 60.3125 39C60.3125 37.1047 58.7703 35.5625 56.875 35.5625ZM45.1781 46.3712C45.0754 43.0478 42.3475 40.375 39 40.375C35.6525 40.375 32.9246 43.0478 32.8219 46.3712C30.7178 44.6041 29.375 41.9568 29.375 39C29.375 33.6927 33.6927 29.375 39 29.375C44.3073 29.375 48.625 33.6927 48.625 39C48.625 41.9568 47.2822 44.6041 45.1781 46.3712ZM43.125 36.25C43.125 33.9753 41.2747 32.125 39 32.125C36.7253 32.125 34.875 33.9753 34.875 36.25C34.875 38.5247 36.7253 40.375 39 40.375C41.2747 40.375 43.125 38.5247 43.125 36.25Z" fill="#00BCD0"/>
</g>
<defs>
<clipPath id="clip0_306_6306">
<rect width="44" height="44" fill="white" transform="translate(17 17)"/>
</clipPath>
</defs>
</svg>
