<svg width="78" height="78" viewBox="0 0 78 78" fill="none" xmlns="http://www.w3.org/2000/svg">
<circle cx="39" cy="39" r="39" fill="#DFFCFF"/>
<circle cx="39" cy="39" r="38.5" stroke="#10387A" stroke-opacity="0.2" stroke-dasharray="6 6"/>
<g clip-path="url(#clip0_239_7293)">
<path d="M33.4481 33.5305C34.7504 32.2282 34.7504 30.1094 33.4481 28.8072L30.2993 25.6583C28.997 24.3561 26.8782 24.3561 25.576 25.6583L24.7888 26.4456L32.661 34.3177L33.4481 33.5305Z" fill="#00BCD0"/>
<path d="M41.9253 47.0958C41.4552 47.5659 40.7649 47.7495 40.1239 47.5751C38.4925 47.1312 36.1011 46.1553 33.973 44.0272C31.8449 41.899 30.869 39.5076 30.425 37.8764C30.2506 37.2353 30.4343 36.545 30.9045 36.0749L31.0866 35.8927L23.2144 28.0205L22.0614 29.1735C20.2755 30.9594 19.5815 33.5905 20.2503 36.0399C21.2459 39.6861 23.4333 45.0332 28.2001 49.8C32.9668 54.5668 38.3139 56.7541 41.9601 57.7497C44.4096 58.4185 47.0406 57.7245 48.8266 55.9386L49.9795 54.7856L42.1075 46.9136L41.9253 47.0958Z" fill="#00BCD0"/>
<path d="M49.1923 44.5519C47.89 43.2496 45.7712 43.2496 44.469 44.5519L43.6818 45.3391L51.5538 53.2112L52.3411 52.424C53.6433 51.1217 53.6433 49.0029 52.3411 47.7007L49.1923 44.5519Z" fill="#00BCD0"/>
<path d="M46.7927 27.5601C46.7334 27.8748 46.8085 28.167 46.984 28.3046C47.0458 28.3531 47.1139 28.4007 47.187 28.4476V26.8955C46.9605 27.0692 46.8357 27.3321 46.7927 27.5601Z" fill="#00BCD0"/>
<path d="M48.6714 30.7129V33.0969C49.0889 32.8577 49.3382 32.4349 49.4059 32.0326C49.4545 31.7425 49.4745 31.0511 48.6714 30.7129Z" fill="#00BCD0"/>
<path d="M47.9804 20C42.4557 20 37.9609 24.4948 37.9609 30.0195C37.9609 31.2797 38.1954 32.51 38.6587 33.6828L36.5336 40.0581C36.4006 40.4571 36.5038 40.897 36.8004 41.1952C37.0128 41.4086 37.2982 41.5234 37.5899 41.5234C37.7057 41.5234 37.8226 41.5053 37.9361 41.4681L44.3682 39.363C45.5243 39.8119 46.7374 40.0391 47.9804 40.0391C53.5052 40.0391 58 35.5443 58 30.0195C58 24.4948 53.5052 20 47.9804 20ZM50.8697 32.2785C50.6951 33.3171 49.9046 34.3705 48.6714 34.6834V35.2148C48.6714 35.6247 48.3391 35.957 47.9292 35.957C47.5194 35.957 47.187 35.6247 47.187 35.2148V34.7545C46.5878 34.7027 46.091 34.5409 45.3869 34.0802C45.0438 33.8558 44.9477 33.3958 45.1721 33.0528C45.3964 32.7098 45.8564 32.6135 46.1995 32.838C46.6005 33.1003 46.8514 33.2145 47.187 33.2617V30.1267C46.713 29.9095 46.3587 29.7004 46.068 29.4723C45.452 28.9892 45.1708 28.1511 45.334 27.2849C45.5118 26.341 46.1689 25.59 47.0486 25.325C47.0952 25.311 47.1413 25.2981 47.187 25.286V24.8242C47.187 24.4144 47.5194 24.082 47.9292 24.082C48.3391 24.082 48.6714 24.4144 48.6714 24.8242V25.2047C49.392 25.3294 49.9014 25.6843 50.148 25.9674C50.4173 26.2765 50.3849 26.7453 50.0758 27.0145C49.7684 27.2822 49.303 27.2518 49.033 26.9473C49.0161 26.9302 48.8981 26.8166 48.6714 26.733V29.1311C48.8031 29.18 48.9348 29.2275 49.064 29.2732C50.3686 29.7344 51.0943 30.9421 50.8697 32.2785Z" fill="#00BCD0"/>
</g>
<defs>
<clipPath id="clip0_239_7293">
<rect width="38" height="38" fill="white" transform="translate(20 20)"/>
</clipPath>
</defs>
</svg>
